<?xml version="1.0" encoding="UTF-8" standalone="no"?>
<svg xmlns="http://www.w3.org/2000/svg" version="1.1" width="1.4102496215820313in" height="1.2997370361328127in" viewBox="0 0 101.53797275390625 93.58106660156251">
<g>
  <path d="M70.47778447265625 17.361189843749997 L70.47959150390625 17.393712890625 L70.57514619140626 26.7010681640625 L70.59797666015625 26.7010681640625 C71.06350634765626 26.7010681640625 71.51004697265626 26.7918873046875 71.93759853515625 26.973525585937498 C72.34827275390626 27.1479955078125 72.71197822265627 27.393600585937502 73.02871494140626 27.710333789062503 C73.34545166015627 28.027070507812503 73.59105322265626 28.390775976562498 73.76551962890626 28.8014466796875 C73.94715791015626 29.2289923828125 74.03797353515625 29.6755330078125 74.03797353515625 30.141068554687497 C74.03797353515625 30.606604101562503 73.94715791015626 31.0531447265625 73.76551962890626 31.4806904296875 C73.59105322265626 31.8913611328125 73.34545166015627 32.255066601562504 73.02871494140626 32.5718033203125 C72.71197822265627 32.888536523437494 72.34827275390626 33.134141601562504 71.93759853515625 33.308611523437506 C71.52470244140625 33.4840236328125 71.09409462890625 33.5747373046875 70.64577509765624 33.580749023437505 L70.64875634765625 33.8711080078125 L70.88000009765625 50.3410658203125 C70.88000009765625 51.600636914062505 70.75032978515625 52.8431220703125 70.49098212890625 54.068521289062495 C70.23875712890624 55.2602900390625 69.86797119140626 56.417029101562505 69.37861728515625 57.53873847656251 C68.89978212890625 58.636351757812506 68.31603369140623 59.68087910156251 67.62737548828125 60.67232753906251 C66.94759775390625 61.650986132812506 66.17877275390624 62.55904394531251 65.32089345703125 63.39649394531251 C64.46526767578125 64.23174316406251 63.53823955078125 64.97999472656251 62.53981259765625 65.6412486328125 C61.53331376953125 66.30784628906251 60.47423876953125 66.87273691406251 59.362594628906244 67.3359205078125 C58.231069628906255 67.8073869140625 57.066304394531244 68.1645533203125 55.86830244140624 68.4074337890625 C54.639647753906246 68.6565275390625 53.39688134765625 68.7810720703125 52.14000322265625 68.78106738281251 L39.43797275390625 68.78106738281251 L39.43797275390625 71.4410666015625 C39.43797275390625 71.9066009765625 39.34715361328126 72.35314160156251 39.165515332031255 72.7806884765625 C38.99104892578126 73.1913556640625 38.74544736328125 73.55506113281251 38.42870888671875 73.8717978515625 C38.11196337890625 74.1885416015625 37.74825966796875 74.43415019531251 37.337595996093754 74.6086166015625 C36.91005556640625 74.7902548828125 36.46351494140625 74.88107050781251 35.997974121093755 74.88107050781251 C35.53243330078125 74.88107050781251 35.08589267578125 74.7902548828125 34.65835224609375 74.6086166015625 C34.24768857421875 74.43415019531251 33.88398486328125 74.1885416015625 33.56723935546875 73.8717978515625 C33.25049736328125 73.5550541015625 33.00489580078125 73.1913486328125 32.83043115234375 72.7806884765625 C32.64879169921875 72.35314160156251 32.557972558593754 71.9066009765625 32.55797373046875 71.4410666015625 L32.55797373046875 68.78106738281251 L18.84000234375 68.78106738281251 C17.571643066406253 68.78106738281251 16.318653222656252 68.6566845703125 15.081033251953125 68.40791191406251 C13.874032617187499 68.1652986328125 12.701286254882813 67.8084064453125 11.562793725585939 67.3372494140625 C10.444315209960939 66.8743751953125 9.37922479019165 66.3096814453125 8.367522583007812 65.64317519531251 C7.364169506835937 64.98217675781251 6.432879052734376 64.2339462890625 5.573651220703126 63.3984837890625 C4.712530957031251 62.561195507812506 3.9409734375000003 61.6529900390625 3.2589791015625007 60.6738744140625 C2.568461572265625 59.682524414062506 1.9832405273437508 58.6377650390625 1.5033155273437502 57.5395892578125 C1.0131697265625004 56.4180275390625 0.6418195312500002 55.2610775390625 0.38926494140625034 54.0687533203125 C0.12975556640625063 52.84359667968751 8.789062497793765e-7 51.6010341796875 0.000001757812499558753 50.3410658203125 L0 18.2410646484375 C0 16.980853710937502 0.12980830078125005 15.73953515625 0.38942490234375016 14.517108984375 C0.6421675781250008 13.3270505859375 1.0138464843750001 12.173721679687503 1.5044616210937503 11.05711875 C1.9849315429687506 9.963607031250001 2.5708633300781254 8.9247287109375 3.2622569824218752 7.9404837890625 C3.945111181640626 6.9683958984375005 4.717691894531251 6.06823974609375 5.579999121093751 5.240015332031251 C6.440257177734376 4.413759667968751 7.372697607421877 3.675532031250001 8.377320410156251 3.025332421875001 C9.389985754394532 2.3699273437500006 10.456109582519533 1.8168764648437505 11.575691894531252 1.3661797851562505 C12.71481826171875 0.9076145507812505 13.888227099609376 0.5635584960937504 15.095918408203126 0.33401162109375016 C16.3336728515625 0.0987499511718749 17.58170126953125 -0.012231298828125237 18.84000234375 0.0010669921874999488 L51.93999228515626 0.0010687500000005068 C53.15652158203125 0.001068310546875617 54.356945800781254 0.11597827148437478 55.54126494140625 0.3457977539062502 C56.69863330078125 0.5703864257812498 57.82347509765624 0.9013144042968757 58.91578330078124 1.3385816894531248 C59.99002939453125 1.7686173339843754 61.01516103515626 2.2943794921875007 61.99117822265626 2.9158681640625006 C62.958885644531264 3.532063183593749 63.861307910156256 4.231508203125 64.69844853515626 5.014201464843751 C65.53607666015625 5.797346191406251 66.29321220703125 6.64968955078125 66.96985517578125 7.57123154296875 C67.65305009765625 8.501695312499999 68.24205791015625 9.486232031250001 68.73687509765625 10.5248408203125 C69.24046025390625 11.5818416015625 69.63801416015626 12.6772154296875 69.92955087890626 13.810964062499998 C70.22804150390625 14.971744335937498 70.41078369140625 16.1551529296875 70.47778447265625 17.361189843749997 L70.47778447265625 17.361189843749997 Z M63.800441894531254 17.4189603515625 L63.856698925781245 26.7010681640625 L60.597974707031256 26.7010681640625 C60.132442675781256 26.7010681640625 59.68590205078125 26.7918873046875 59.25835283203125 26.973525585937498 C58.84768212890625 27.1479955078125 58.48398017578126 27.393597070312502 58.16723994140626 27.710333789062503 C57.85049970703126 28.027070507812503 57.60489814453125 28.390775976562498 57.43043173828124 28.8014466796875 C57.24879345703124 29.2289958984375 57.15797431640625 29.6755365234375 57.15797431640625 30.141068554687497 C57.15797431640625 30.6066005859375 57.24879345703124 31.0531412109375 57.43043173828124 31.4806904296875 C57.604901660156244 31.8913611328125 57.85050322265626 32.255066601562504 58.16723994140626 32.5718033203125 C58.48397666015626 32.88854003906249 58.84768212890625 33.134141601562504 59.25835283203125 33.308611523437506 C59.68590205078125 33.49024980468751 60.132442675781256 33.5810689453125 60.597974707031256 33.5810689453125 L63.89839775390626 33.5810689453125 L64.00003095703126 50.3497916015625 C64.00001337890626 51.1305240234375 63.91846845703125 51.902615039062496 63.75540322265625 52.6660576171875 C63.596764160156255 53.4087720703125 63.36334072265626 54.1297634765625 63.05512939453126 54.829028320312496 C62.752458691406254 55.5157212890625 62.38297705078125 56.169585351562496 61.94667744140625 56.7906134765625 C61.51431650390625 57.4060306640625 61.02477275390626 57.977291601562506 60.478046191406264 58.504396289062505 C59.93145439453126 59.031367382812505 59.33885009765625 59.503473632812494 58.700229785156246 59.9207150390625 C58.056205957031246 60.3414861328125 57.37830908203125 60.6979845703125 56.66653564453125 60.9902103515625 C55.94255244140625 61.2874423828125 55.197025488281255 61.51258300781251 54.42995126953126 61.66561816406251 C53.64317548828126 61.822583789062506 52.846524316406246 61.9010666015625 52.040001269531245 61.9010666015625 L39.43797275390625 61.9010666015625 L39.43797275390625 61.4410681640625 C39.43797275390625 60.9755337890625 39.34715361328126 60.528993164062506 39.165515332031255 60.1014462890625 C38.99104892578126 59.690786132812505 38.74544736328125 59.3270806640625 38.42870888671875 59.010336914062506 C38.11196337890625 58.693593164062506 37.74825966796875 58.4479845703125 37.337595996093754 58.27351816406251 C36.91005556640625 58.091879882812506 36.46351494140625 58.0010642578125 35.997974121093755 58.0010642578125 C35.53243330078125 58.0010642578125 35.08589267578125 58.091879882812506 34.65835224609375 58.27351816406251 C34.24768681640625 58.4479845703125 33.88398310546875 58.693586132812506 33.56723935546875 59.010336914062506 C33.25049736328125 59.3270806640625 33.00489580078125 59.690786132812505 32.83043115234375 60.1014462890625 C32.64879287109375 60.528993164062506 32.55797373046875 60.9755337890625 32.55797373046875 61.4410681640625 L32.55797373046875 61.9010666015625 L18.84000234375 61.9010666015625 C18.0334798828125 61.9010666015625 17.236830908203128 61.822583789062506 16.450055419921878 61.66561816406251 C15.682979882812502 61.51258300781251 14.937451171875002 61.2874423828125 14.213468847656252 60.9902103515625 C13.501693652343752 60.6979822265625 12.823794799804688 60.3414837890625 12.179772290039063 59.9207150390625 C11.541159594726563 59.5034712890625 10.94855515136719 59.03136503906251 10.40195895996094 58.504396289062505 C9.855228048706056 57.977291601562506 9.365683895874025 57.4060306640625 8.933326501464844 56.7906134765625 C8.49702293701172 56.169578320312496 8.127537670898437 55.5157212890625 7.824870703125001 54.829028320312496 C7.516669702148438 54.129784570312495 7.283247143554688 53.4087931640625 7.124603027343751 52.6660576171875 C6.961534936523439 51.9026115234375 6.880001000976564 51.127613085937504 6.880000781250001 50.3410658203125 L6.880002099609376 18.24106640625 C6.880001879882814 16.6800462890625 7.194525073242188 15.190247460937503 7.823571240234376 13.771669921874999 C8.125583349609375 13.090594921875 8.494392333984376 12.442663476562503 8.929998193359376 11.827875585937502 C9.361458325195313 11.218939453125001 9.85026085510254 10.654001367187501 10.396405810546876 10.133063085937502 C10.942189562988283 9.6124693359375 11.534320458984375 9.1462166015625 12.172798388671875 8.734307519531251 C12.816446337890625 8.31906240234375 13.494434179687502 7.967303027343751 14.206761914062502 7.679029394531251 C14.931007031250003 7.3859326171875015 15.67733994140625 7.163947265625001 16.445761083984376 7.0130724609375 C17.233510400390625 6.8584025390625 18.031590527343752 6.7810675781250005 18.840001464843752 6.7810675781250005 L52.14000322265625 6.7810675781250005 C53.639478222656244 6.7810675781250005 55.07179892578125 7.045524316406251 56.43696533203126 7.574437792968751 C57.766108300781255 8.089393652343752 58.956737988281255 8.825108203125001 60.008854394531255 9.781581445312503 C61.06657236328125 10.743141796875001 61.91935400390626 11.868996093749999 62.56719580078125 13.1591408203125 C63.229841894531255 14.4787611328125 63.64092392578125 15.898700976562498 63.800441894531254 17.4189603515625 L63.800441894531254 17.4189603515625 Z M93.28594306640625 33.3850587890625 C93.15105556640624 33.6548337890625 92.98346572265625 33.8997392578125 92.78318056640624 34.119771679687496 C92.57787509765626 34.3453271484375 92.34488056640625 34.537441992187496 92.08419697265624 34.6961126953125 C91.55305634765624 35.019416601562504 90.95765009765626 35.1810685546875 90.29797119140625 35.1810685546875 C89.72982509765625 35.1810685546875 89.18424228515624 35.013949804687506 88.66123681640624 34.6797158203125 C88.23506572265626 34.4511685546875 87.71857119140626 34.2259048828125 87.11176025390625 34.00392480468751 C86.66504384765625 33.840511523437506 86.22951416015626 33.6995595703125 85.80516416015625 33.5810689453125 L80.69797353515625 33.5810689453125 C80.23244384765626 33.5810689453125 79.78590322265626 33.49024980468751 79.35835166015626 33.308611523437506 C78.94767744140626 33.134141601562504 78.58397197265626 32.888536523437494 78.26723525390626 32.5718033203125 C77.95049853515626 32.255066601562504 77.70489697265626 31.8913611328125 77.53043056640625 31.4806904296875 C77.34879228515625 31.0531447265625 77.25797666015626 30.606604101562503 77.25797666015626 30.141068554687497 C77.25797666015626 29.6755330078125 77.34879228515625 29.2289923828125 77.53043056640625 28.8014466796875 C77.70489697265626 28.390775976562498 77.95049853515626 28.027074023437503 78.26723525390626 27.710333789062503 C78.58397197265626 27.393600585937502 78.94767744140626 27.1479955078125 79.35835166015626 26.973525585937498 C79.78590322265626 26.7918873046875 80.23244384765626 26.7010681640625 80.69797353515625 26.7010681640625 L81.78479384765626 26.701127929687498 C81.96095478515626 26.6995142578125 82.18515322265625 26.6970287109375 82.45738916015624 26.6936642578125 C83.02613291015624 26.6866365234375 83.45641728515625 26.6878951171875 83.74824931640626 26.697440039062503 C84.08267666015627 26.708377148437503 84.72924228515625 26.7438568359375 85.68795322265626 26.8038791015625 L85.75005322265626 26.8077673828125 L85.81158369140626 26.8169994140625 C86.97024228515625 26.990801367187498 88.01060712890624 27.2190849609375 88.93266416015625 27.5018501953125 C90.01571572265624 27.8339888671875 91.00147587890625 28.259217773437502 91.88995166015624 28.777543945312498 C92.29915634765624 28.9900037109375 92.64702744140624 29.272884960937496 92.93357197265624 29.6261947265625 C93.21791572265624 29.976790429687497 93.42219462890624 30.3722806640625 93.54640166015625 30.8126654296875 C93.66550400390625 31.234958789062507 93.70241806640624 31.668558398437504 93.65712978515624 32.1134642578125 C93.61203134765624 32.5564798828125 93.48830244140625 32.9803447265625 93.28594306640625 33.3850587890625 L93.28594306640625 33.3850587890625 Z M50.59797275390625 26.7010681640625 C51.04258681640625 26.7010681640625 51.471137988281264 26.7787458984375 51.88362978515626 26.9340978515625 C52.284048925781256 27.0849041015625 52.64486455078125 27.2994978515625 52.96606962890625 27.5778755859375 C53.28998173828125 27.8585982421875 53.55175869140626 28.1851189453125 53.751407519531256 28.557434179687498 C53.96068916015626 28.947721289062496 54.08716376953126 29.361169335937497 54.13082431640626 29.7977853515625 L54.13797158203125 29.8692474609375 L54.13797158203125 29.9410681640625 C54.13796806640625 30.413202539062496 54.04436455078126 30.8609630859375 53.85715400390626 31.284349804687505 C53.67652587890626 31.692853710937506 53.42137939453126 32.05056855468751 53.091714550781255 32.3574943359375 C52.772534472656254 32.6546595703125 52.40617822265625 32.8829783203125 51.992638769531254 33.042447070312505 C51.58010830078126 33.2015255859375 51.148551269531254 33.2810666015625 50.697971191406246 33.2810666015625 C49.382677441406244 33.2810666015625 48.12248291015624 33.495055664062505 46.91738759765625 33.9230337890625 C45.73903798828125 34.3415126953125 44.620566503906254 34.96485761718749 43.561969628906255 35.793068554687494 C43.25406767578126 36.023992382812494 42.92337744140625 36.2081900390625 42.569895410156256 36.3456544921875 C42.16632978515626 36.502599023437504 41.77568759765625 36.5810712890625 41.397972363281255 36.5810677734375 C40.890685253906256 36.5810712890625 40.417274707031254 36.49116621093751 39.97774072265625 36.3113560546875 C39.464920019531256 36.1015646484375 39.03688212890625 35.786283398437504 38.69362705078125 35.3655158203125 C38.399796386718755 35.0235685546875 38.18546806640625 34.6405201171875 38.05063857421875 34.2163669921875 C37.91480888671875 33.7890673828125 37.86975791015625 33.3524935546875 37.91548740234375 32.9066455078125 C37.961331152343746 32.459665429687504 38.094924902343756 32.038349414062495 38.31626865234375 31.6427009765625 C38.54084794921875 31.241268164062504 38.83489658203125 30.899240039062505 39.19841455078125 30.6166166015625 C40.81219541015625 29.325591210937503 42.608342285156255 28.3456845703125 44.58684814453125 27.676896679687502 C46.511404394531255 27.0263443359375 48.51511259765625 26.7010681640625 50.59797275390625 26.7010681640625 L50.59797275390625 26.7010681640625 Z M100.03497978515625 37.8062630859375 C100.93288447265624 40.051042382812504 101.43338994140625 42.3075146484375 101.53648916015625 44.5756798828125 L101.53797275390625 44.6083576171875 L101.53797275390625 49.0410685546875 C101.53797275390625 49.5066041015625 101.44715712890626 49.953144726562506 101.26551884765625 50.380690429687505 C101.09105244140626 50.791354101562504 100.84545087890625 51.1550595703125 100.52870712890625 51.4718033203125 C100.21197041015625 51.7885435546875 99.84826494140624 52.03414511718751 99.43759775390625 52.2086115234375 C99.01005087890626 52.3902498046875 98.56351025390624 52.4810689453125 98.09797587890624 52.4810689453125 C97.63244150390625 52.4810689453125 97.18590087890625 52.3902498046875 96.75835400390626 52.2086115234375 C96.34769384765626 52.03414511718751 95.98398837890626 51.7885435546875 95.66724462890626 51.4718033203125 C95.35050087890625 51.1550595703125 95.10489228515624 50.791354101562504 94.93042587890625 50.380690429687505 C94.74878759765625 49.953151757812506 94.65797197265626 49.506611132812495 94.65797197265626 49.0410685546875 L94.65797197265626 44.6410669921875 C94.65797197265626 43.306750195312496 94.36521181640624 41.9006865234375 93.77968447265626 40.4228830078125 C93.58259150390626 40.0081201171875 93.47712978515625 39.571342382812496 93.46331337890625 39.1125462890625 C93.44958837890626 38.6569107421875 93.52716416015625 38.2151794921875 93.69604775390624 37.7873490234375 C93.86230400390625 37.3661748046875 94.10304697265626 36.9938595703125 94.41827666015625 36.6704033203125 C94.74664072265625 36.333465820312504 95.12826884765624 36.0780205078125 95.56316103515624 35.9040673828125 C95.99137119140624 35.7327861328125 96.43849541015625 35.6527599609375 96.90453369140626 35.6639853515625 C97.34599072265625 35.6746201171875 97.77173994140625 35.76626191406251 98.18177431640625 35.9389107421875 C98.59406572265625 36.112505273437506 98.95784150390625 36.354257226562495 99.27308759765624 36.6641666015625 C99.60823916015626 36.993633398437495 99.86220087890625 37.3743333984375 100.03497978515625 37.8062630859375 L100.03497978515625 37.8062630859375 Z M36.95556357421876 38.1242935546875 C37.41987744140626 38.208714257812495 37.849497363281245 38.3835041015625 38.24442333984375 38.6486701171875 C38.60717607421875 38.892232617187496 38.91716982421875 39.196221679687504 39.17440634765625 39.5606408203125 C39.42135791015625 39.9104876953125 39.60203642578126 40.29081503906251 39.716438378906254 40.7016263671875 C39.835470410156255 41.1290560546875 39.87360087890625 41.5566333984375 39.83082626953125 41.9843548828125 L39.82229033203125 42.06970722656251 L39.80368564453126 42.1534423828125 C39.626547363281254 42.950582226562496 39.53797822265625 43.746456445312496 39.53797822265625 44.5410685546875 L39.53797822265625 51.441069726562496 C39.53797822265625 51.9065982421875 39.44715908203125 52.3531388671875 39.26551728515625 52.7806916015625 C39.09105439453125 53.191358789062505 38.84545107421876 53.555064257812504 38.52871259765626 53.871800976562504 C38.21197587890626 54.188537695312505 37.84827216796875 54.4341462890625 37.43760146484375 54.6086126953125 C37.01005048828125 54.790250976562504 36.56350810546875 54.8810736328125 36.097977832031255 54.8810736328125 C35.632445800781255 54.8810736328125 35.18590517578125 54.790250976562504 34.75835419921875 54.6086126953125 C34.34768173828125 54.4341462890625 33.983976269531254 54.188537695312505 33.66724130859375 53.871800976562504 C33.35050283203125 53.555064257812504 33.10490126953125 53.191358789062505 32.93043486328125 52.7806916015625 C32.74879482421875 52.3531388671875 32.657975683593754 51.9065982421875 32.657975683593754 51.441069726562496 L32.657975683593754 44.5410685546875 C32.657975683593754 43.9077392578125 32.68478056640625 43.2828228515625 32.73838857421875 42.6663228515625 C32.79013681640625 42.071218945312495 32.869864160156254 41.4505564453125 32.97756708984375 40.8043318359375 L32.98138505859375 40.7814310546875 L32.985937792968755 40.7586603515625 C33.07376689453125 40.3195130859375 33.244728222656256 39.9143654296875 33.49881826171875 39.5432208984375 C33.743748339843755 39.185460351562504 34.04804326171875 38.8853560546875 34.41170478515625 38.6429150390625 C34.776694628906256 38.3995869140625 35.174499902343754 38.232454101562496 35.605120605468755 38.1415166015625 C36.050849121093755 38.0473869140625 36.50099677734376 38.041645898437494 36.95556357421876 38.1242935546875 L36.95556357421876 38.1242935546875 Z M97.99797041015624 55.5010681640625 C98.46350244140625 55.5010681640625 98.91004306640625 55.5918837890625 99.33759228515625 55.7735220703125 C99.74825244140625 55.94798847656251 100.11195087890626 56.1935900390625 100.42870166015625 56.5103337890625 C100.74545244140624 56.8270845703125 100.99105400390626 57.1907830078125 101.16552041015625 57.6014431640625 C101.34715869140625 58.028985351562504 101.43797431640625 58.4755259765625 101.43797431640625 58.9410650390625 L101.43797431640625 68.9410705078125 C101.43797431640625 69.4066095703125 101.34715869140625 69.85315019531251 101.16552041015625 70.2806923828125 C100.99105400390626 70.6913595703125 100.74544541015625 71.0550650390625 100.42870166015625 71.3718087890625 C100.11195791015625 71.68854550781249 99.74825244140625 71.9341470703125 99.33759228515625 72.10861347656251 C98.91004306640625 72.29025175781251 98.46350244140625 72.38106738281252 97.99797041015624 72.38106738281252 C97.53243134765626 72.38106738281252 97.08589072265625 72.29025175781251 96.65834853515625 72.10861347656251 C96.24768134765625 71.9341470703125 95.88397587890626 71.6885384765625 95.56723916015626 71.3718017578125 C95.25050244140625 71.05506503906251 95.00489384765625 70.6913595703125 94.83042744140626 70.2806923828125 C94.64878916015626 69.85315019531251 94.55797353515625 69.4066095703125 94.55797353515625 68.9410705078125 L94.55797353515625 58.9410650390625 C94.55797353515625 58.4755259765625 94.64878916015626 58.028985351562504 94.83042744140626 57.6014431640625 C95.00489384765625 57.1907900390625 95.25049541015625 56.8270916015625 95.56723916015626 56.5103408203125 C95.88398994140626 56.1935900390625 96.24768837890625 55.94798847656251 96.65834853515625 55.7735220703125 C97.08589072265625 55.5918837890625 97.53243134765626 55.5010681640625 97.99797041015624 55.5010681640625 L97.99797041015624 55.5010681640625 Z M98.21680400390625 75.5354267578125 L98.27686494140625 75.5518025390625 C98.70799306640626 75.66938613281252 99.10378212890625 75.8539423828125 99.46423916015625 76.1054853515625 C99.82189072265625 76.3550736328125 100.12275791015625 76.65497050781252 100.36684775390626 77.0051830078125 C100.61987900390625 77.36823457031251 100.79452119140625 77.76013535156252 100.89077431640625 78.18088535156252 C100.99312822265625 78.62830488281253 100.99802197265625 79.08314238281251 100.90544853515625 79.54538378906251 C100.68830244140625 80.54969238281251 100.39150634765625 81.52747207031251 100.01507431640624 82.47873691406252 C99.63643447265625 83.43556347656252 99.18315791015624 84.3505330078125 98.65523056640625 85.2236455078125 C98.11990634765625 86.10898535156251 97.51592197265624 86.93784316406253 96.84326337890626 87.71021894531252 C96.15654228515625 88.49874550781252 95.40796728515625 89.2171775390625 94.59753837890625 89.86552207031251 L94.57996025390625 89.87958457031252 L94.56195322265624 89.89308457031251 C94.23092900390625 90.1413369140625 93.85472900390626 90.32398769531252 93.43336728515625 90.44103691406251 C93.09729462890624 90.53439082031251 92.75215869140625 90.58106425781251 92.39796650390626 90.58106425781251 C91.89067587890626 90.5810712890625 91.41726884765625 90.49116269531251 90.97773837890625 90.31135253906251 C90.46478759765625 90.10151191406251 90.03667587890624 89.78613925781251 89.69338916015624 89.36523457031251 C89.39641728515625 89.01932050781251 89.18058603515624 88.6260837890625 89.04589541015625 88.18552441406251 C88.91445322265625 87.7556056640625 88.87074697265625 87.31501347656253 88.91477666015625 86.86374082031251 C88.95913681640624 86.40905097656253 89.08896884765625 85.98119941406252 89.30427275390626 85.58020019531251 C89.52742353515625 85.1645900390625 89.82523916015626 84.81020800781252 90.19773369140626 84.51704707031251 C91.16950869140625 83.71977363281252 91.99355009765625 82.76881816406251 92.66986494140625 81.66417363281252 C93.35167119140624 80.55055722656252 93.82502900390625 79.3756142578125 94.08993837890625 78.1393517578125 L94.10206728515624 78.08274316406252 L94.11870322265625 78.02728769531251 C94.24260791015624 77.6142791015625 94.43470166015625 77.23513300781251 94.69497744140625 76.88986347656251 C94.95206103515625 76.5488408203125 95.25896103515625 76.26291503906252 95.61569150390625 76.03208613281252 C95.98359462890625 75.79403144531253 96.38013603515624 75.63038613281252 96.80531572265625 75.54115019531251 C97.25183525390625 75.44743066406252 97.70191962890625 75.44181269531249 98.15555478515626 75.5242892578125 L98.21680400390625 75.5354267578125 L98.21680400390625 75.5354267578125 Z M45.12036884765625 85.6951892578125 L45.13884697265625 85.70627753906251 C45.546311425781255 85.95076113281252 45.88856455078125 86.25768925781252 46.16559931640625 86.62706894531252 C46.44128759765625 86.99464863281251 46.63441494140626 87.39956425781251 46.74497783203126 87.84182285156251 C46.85554072265626 88.28406035156252 46.87568173828126 88.73221816406252 46.805407910156255 89.1863033203125 C46.73740869140626 89.62569316406251 46.588803222656246 90.04243535156252 46.35959501953124 90.43653691406251 C46.22260869140625 90.6978322265625 46.04794189453125 90.93744316406251 45.83559462890624 91.1553767578125 C45.62613017578125 91.37034316406252 45.388783300781256 91.55519472656252 45.12354697265626 91.7099173828125 C44.864835644531254 91.86082910156252 44.59103173828126 91.97641582031252 44.302131738281254 92.05666347656252 C44.003542675781254 92.13960410156251 43.70215517578126 92.18107441406251 43.39797275390625 92.18107441406251 C43.05777978515625 92.18107441406251 42.73744658203126 92.1348439453125 42.43697666015626 92.04239003906251 C42.16395673828126 91.95837363281251 41.89922314453125 91.83351972656251 41.642779394531246 91.6678212890625 C40.764966503906244 91.1597009765625 39.93224501953126 90.5801361328125 39.14461845703126 89.92911972656252 C38.354139550781255 89.27573847656251 37.622008886718746 88.56111738281251 36.94822646484375 87.78525644531251 C36.27499658203125 87.01002597656252 35.67138134765625 86.1867298828125 35.13738251953125 85.31537519531251 C34.59872373046875 84.4364197265625 34.139917089843756 83.52325019531251 33.760966113281256 82.57587363281252 C33.589686621093755 82.14767753906253 33.509662207031255 81.70055332031251 33.52089287109375 81.23450800781252 C33.53152939453125 80.79305097656251 33.623172949218755 80.3673087890625 33.795820019531256 79.9572673828125 C33.96941630859376 79.54497597656251 34.211168261718754 79.1812072265625 34.52107587890625 78.86595410156251 C34.85055498046875 78.53079550781251 35.23125498046875 78.27683378906251 35.66317236328125 78.1040619140625 C36.091380761718746 77.9327806640625 36.53850146484376 77.8527509765625 37.00453623046876 77.86397988281252 C37.445984472656264 77.87461816406251 37.87173193359375 77.96625644531251 38.28177509765625 78.1389087890625 C38.69406474609375 78.3125033203125 39.05783525390625 78.5542587890625 39.37309189453125 78.8641681640625 C39.708246972656255 79.1936455078125 39.96106611328125 79.5715048828125 40.13154931640625 79.9977603515625 C40.62236220703125 81.20248769531251 41.297664550781256 82.29696503906251 42.15745634765626 83.2812064453125 C43.01796533203126 84.26625644531251 43.99933447265625 85.06741113281251 45.10156728515625 85.68466347656252 L45.12036884765625 85.6951892578125 L45.12036884765625 85.6951892578125 Z M63.09797431640625 86.70106582031252 C63.56351337890626 86.70106582031252 64.01005400390626 86.79188144531251 64.43759619140626 86.97351972656251 C64.84825986328126 87.1479861328125 65.21196181640626 87.3935876953125 65.52870908203126 87.71033847656251 C65.84544931640625 88.02708222656251 66.09105439453126 88.39078769531251 66.26551728515626 88.80144785156251 C66.44715556640627 89.2289947265625 66.53797470703125 89.67553535156252 66.53797470703125 90.1410697265625 C66.53797236328126 90.60660410156251 66.44715322265625 91.05314472656252 66.26551728515626 91.48069160156251 C66.09104736328126 91.89136582031252 65.84544580078125 92.25506425781252 65.52870908203126 92.57180097656251 C65.21196533203126 92.88854472656251 64.84825986328126 93.13414628906251 64.43759619140626 93.3086126953125 C64.01005048828125 93.4902509765625 63.563509863281254 93.58106660156251 63.09797431640625 93.58106660156251 L53.09797236328125 93.58106660156251 C52.63243681640624 93.58106660156251 52.18589619140626 93.4902509765625 51.758354003906256 93.3086126953125 C51.34769384765625 93.13414628906251 50.983988378906254 92.8885447265625 50.66724111328125 92.5717939453125 C50.35050087890625 92.25505722656251 50.10489580078126 91.89135175781252 49.930432910156256 91.48069160156251 C49.74879462890625 91.05314472656252 49.657975488281245 90.60660410156251 49.657975488281245 90.1410697265625 C49.657975488281245 89.67553535156252 49.74879462890625 89.2289947265625 49.930432910156256 88.80144785156251 C50.10489580078126 88.39078769531251 50.35050087890625 88.02708222656251 50.66724111328125 87.71033847656251 C50.983988378906254 87.3935947265625 51.347690332031256 87.1479861328125 51.758354003906256 86.97351972656251 C52.18589619140626 86.79188144531251 52.63243681640624 86.70106582031252 53.09797236328125 86.70106582031252 L63.09797431640625 86.70106582031252 L63.09797431640625 86.70106582031252 Z M83.09797119140624 86.70106582031252 C83.55740009765626 86.70105878906253 84.00309697265625 86.78935722656252 84.43506884765625 86.96595410156252 C84.84844306640625 87.13495019531251 85.21816025390625 87.3719525390625 85.54422041015626 87.67697519531251 C85.87963212890625 87.9907447265625 86.14180634765626 88.3512087890625 86.33074306640624 88.75835332031251 C86.53556337890625 89.1997236328125 86.63797353515625 89.6606291015625 86.63797353515625 90.1410697265625 C86.63796650390626 90.60659472656252 86.54715087890625 91.05313535156252 86.36551259765625 91.48069160156251 C86.19104619140626 91.89135878906251 85.94543759765624 92.25506425781252 85.62870087890624 92.57180097656251 C85.31195712890624 92.88855175781252 84.94825869140625 93.1341533203125 84.53759853515625 93.3086126953125 C84.11005634765625 93.4902509765625 83.66351572265624 93.58106660156251 83.19797666015626 93.58106660156251 L73.09797275390625 93.58106660156251 C72.63243369140625 93.58106660156251 72.18589306640624 93.4902509765625 71.75835087890624 93.3086126953125 C71.34770478515624 93.13414628906251 70.98399931640627 92.8885447265625 70.66724853515626 92.5717939453125 C70.35049775390625 92.25504316406251 70.10488916015626 91.89134472656252 69.93042978515626 91.48069160156251 C69.74879150390626 91.05315644531251 69.65797587890626 90.60661582031251 69.65797587890626 90.1410697265625 C69.65797587890626 89.67553769531251 69.74879150390626 89.22899707031252 69.93042978515626 88.80144785156251 C70.10489619140625 88.39079472656252 70.35049775390627 88.0270892578125 70.66724150390627 87.71033847656251 C70.98399228515626 87.3935876953125 71.34769072265624 87.1479861328125 71.75835087890624 86.97351972656251 C72.18588603515624 86.79188144531251 72.63242666015626 86.70106582031252 73.09797275390625 86.70106582031252 L83.09797119140624 86.70106582031252 L83.09797119140624 86.70106582031252 Z " fill="#000000" fill-rule="evenodd" stroke="none" />
</g>
</svg>
